Results
version=1
nRows=19
nColumns=27
inDegrees=yes
endheader
time	r_x	r_y	r_z	t_x	t_y	t_z	sternoclavicular_r2	sternoclavicular_r3	unrotscap_r3	unrotscap_r2	acromioclavicular_r2	acromioclavicular_r3	acromioclavicular_r1	unrothum_r1	unrothum_r3	unrothum_r2	elv_angle	shoulder_elv	shoulder1_r2	shoulder_rot	elbow_flexion	pro_sup	deviation	flexion	wrist_hand_r1	wrist_hand_r3
      0.00000000	     90.00000023	      0.00000039	     10.00000002	     -0.41460527	      0.35760309	      0.28974260	     -3.49682130	      1.48108846	     -1.48108846	      3.49682130	     -0.70803518	      5.72209128	      2.57204065	     -2.57204065	     -5.72209128	      0.70803518	    -23.60764981	     14.44964239	     23.60764981	     -6.83366925	     97.81522240	     21.26038585	     -0.00000052	      0.00000000	     -0.00000071	      0.00000000
      0.00500000	     90.00000023	      0.00000039	     10.00000002	     -0.41462846	      0.35755980	      0.28969790	     -3.48068377	      1.47425337	     -1.47425337	      3.48068377	     -0.70476766	      5.69568434	      2.56017091	     -2.56017091	     -5.69568434	      0.70476766	    -23.66218314	     14.38295856	     23.66218314	     -6.97589095	     97.90035844	     21.92925183	     -0.00000052	      0.00000000	     -0.00000071	      0.00000000
      0.01000000	     90.00000023	      0.00000039	     10.00000002	     -0.41510200	      0.35741851	      0.28948424	     -3.46089461	      1.46587161	     -1.46587161	      3.46089461	     -0.70076076	      5.66330196	      2.54561525	     -2.54561525	     -5.66330196	      0.70076076	    -23.23788096	     14.30118535	     23.23788096	     -6.88733657	     97.79926562	     21.63467613	     -0.00000052	      0.00000000	     -0.00000071	      0.00000000
      0.01500000	     90.00000023	      0.00000039	     10.00000002	     -0.41458223	      0.35759621	      0.28973761	     -3.50010335	      1.48247858	     -1.48247858	      3.50010335	     -0.70869973	      5.72746193	      2.57445472	     -2.57445472	     -5.72746193	      0.70869973	    -23.68476810	     14.46320456	     23.68476810	     -6.78238541	     97.85998695	     21.04611752	     -0.00000052	      0.00000000	     -0.00000071	      0.00000000
      0.02000000	     90.00000023	      0.00000039	     10.00000002	     -0.41509717	      0.35741512	      0.28948990	     -3.46097702	      1.46590652	     -1.46590652	      3.46097702	     -0.70077745	      5.66343681	      2.54567587	     -2.54567587	     -5.66343681	      0.70077745	    -23.24474785	     14.30152590	     23.24474785	     -6.88363451	     97.79903733	     21.60783345	     -0.00000052	      0.00000000	     -0.00000071	      0.00000000
      0.02500000	     90.00000023	      0.00000039	     10.00000002	     -0.41457711	      0.35759483	      0.28973101	     -3.49971459	      1.48231392	     -1.48231392	      3.49971459	     -0.70862101	      5.72682577	      2.57416877	     -2.57416877	     -5.72682577	      0.70862101	    -23.64420636	     14.46159810	     23.64420636	     -6.77905627	     97.84629135	     21.21461120	     -0.00000052	      0.00000000	     -0.00000071	      0.00000000
      0.03000000	     90.00000023	      0.00000039	     10.00000002	     -0.41462391	      0.35755024	      0.28966898	     -3.48174028	      1.47470085	     -1.47470085	      3.48174028	     -0.70498158	      5.69741317	      2.56094801	     -2.56094801	     -5.69741317	      0.70498158	    -23.53865064	     14.38732428	     23.53865064	     -6.92691166	     97.87820456	     22.10446268	     -0.00000052	      0.00000000	     -0.00000071	      0.00000000
      0.03500000	     90.00000023	      0.00000039	     10.00000002	     -0.41483297	      0.35742579	      0.28944907	     -3.42004321	      1.44856889	     -1.44856889	      3.42004321	     -0.69248918	      5.59645397	      2.51556754	     -2.51556754	     -5.59645397	      0.69248918	    -23.41533725	     14.13237828	     23.41533725	     -7.22971793	     97.92701406	     23.47011977	     -0.00000052	      0.00000000	     -0.00000071	      0.00000000
      0.04000000	     90.00000023	      0.00000039	     10.00000002	     -0.41468913	      0.35745731	      0.28952529	     -3.44284872	      1.45822823	     -1.45822823	      3.44284872	     -0.69710683	      5.63377222	      2.53234184	     -2.53234184	     -5.63377222	      0.69710683	    -23.60399396	     14.22661573	     23.60399396	     -7.04097637	     97.90167595	     22.27535066	     -0.00000052	      0.00000000	     -0.00000071	      0.00000000
      0.04500000	     90.00000023	      0.00000039	     10.00000002	     -0.41461161	      0.35758716	      0.28970257	     -3.48665557	      1.47678274	     -1.47678274	      3.48665557	     -0.70597683	      5.70545641	      2.56456339	     -2.56456339	     -5.70545641	      0.70597683	    -23.47795777	     14.40763537	     23.47795777	     -6.89740578	     97.85026519	     22.07313576	     -0.00000052	      0.00000000	     -0.00000071	      0.00000000
      0.05000000	     90.00000023	      0.00000039	     10.00000002	     -0.41474488	      0.35747687	      0.28951066	     -3.44256250	      1.45810700	     -1.45810700	      3.44256250	     -0.69704888	      5.63330385	      2.53213131	     -2.53213131	     -5.63330385	      0.69704888	    -23.44427265	     14.22543300	     23.44427265	     -7.11105356	     97.91784939	     22.66088478	     -0.00000052	      0.00000000	     -0.00000071	      0.00000000
      0.05500000	     90.00000023	      0.00000039	     10.00000002	     -0.41473345	      0.35743534	      0.28952552	     -3.43938270	      1.45676018	     -1.45676018	      3.43938270	     -0.69640503	      5.62810053	      2.52979245	     -2.52979245	     -5.62810053	      0.69640503	    -23.57620676	     14.21229336	     23.57620676	     -7.06159052	     97.91156289	     22.40259738	     -0.00000052	      0.00000000	     -0.00000071	      0.00000000
      0.06000000	     90.00000023	      0.00000039	     10.00000002	     -0.41464863	      0.35748382	      0.28941829	     -3.44335047	      1.45844074	     -1.45844074	      3.44335047	     -0.69720843	      5.63459326	      2.53271089	     -2.53271089	     -5.63459326	      0.69720843	    -23.61450905	     14.22868907	     23.61450905	     -6.99204256	     97.90273704	     21.62055817	     -0.00000052	      0.00000000	     -0.00000071	      0.00000000
      0.06500000	     90.00000023	      0.00000039	     10.00000002	     -0.41514676	      0.35728293	      0.28930142	     -3.40592633	      1.44258964	     -1.44258964	      3.40592633	     -0.68963080	      5.57335354	      2.50518406	     -2.50518406	     -5.57335354	      0.68963080	    -23.28355796	     14.07404419	     23.28355796	     -7.11974072	     97.86792302	     22.44196810	     -0.00000052	      0.00000000	     -0.00000071	      0.00000000
      0.07000000	     90.00000023	      0.00000039	     10.00000002	     -0.41466925	      0.35748514	      0.28936676	     -3.42803283	      1.45195291	     -1.45195291	      3.42803283	     -0.69410692	      5.60952794	      2.52144420	     -2.52144420	     -5.60952794	      0.69410692	    -23.64257312	     14.16539317	     23.64257312	     -7.12575900	     97.94693866	     22.36623548	     -0.00000052	      0.00000000	     -0.00000071	      0.00000000
      0.07500000	     90.00000023	      0.00000039	     10.00000002	     -0.41473545	      0.35745322	      0.28935668	     -3.42625764	      1.45120103	     -1.45120103	      3.42625764	     -0.69374748	      5.60662308	      2.52013849	     -2.52013849	     -5.60662308	      0.69374748	    -23.48712642	     14.15805769	     23.48712642	     -7.19722427	     97.95019339	     22.88675896	     -0.00000052	      0.00000000	     -0.00000071	      0.00000000
      0.08000000	     90.00000023	      0.00000039	     10.00000002	     -0.41462347	      0.35751704	      0.28939285	     -3.45325912	      1.46263758	     -1.46263758	      3.45325912	     -0.69921473	      5.65080747	      2.53999907	     -2.53999907	     -5.65080747	      0.69921473	    -23.42546712	     14.26963381	     23.42546712	     -6.89984659	     97.83689906	     21.13453089	     -0.00000052	      0.00000000	     -0.00000071	      0.00000000
      0.08500000	     90.00000023	      0.00000039	     10.00000002	     -0.41483962	      0.35753536	      0.28923428	     -3.41541786	      1.44660980	     -1.44660980	      3.41541786	     -0.69155264	      5.58888519	      2.51216543	     -2.51216543	     -5.58888519	      0.69155264	    -23.47554160	     14.11326529	     23.47554160	     -7.15440669	     97.91186350	     22.36331571	     -0.00000052	      0.00000000	     -0.00000071	      0.00000000
      0.09000000	     90.00000023	      0.00000039	     10.00000002	     -0.41453554	      0.35757001	      0.28932440	     -3.44475389	      1.45903516	     -1.45903516	      3.44475389	     -0.69749259	      5.63688977	      2.53374316	     -2.53374316	     -5.63688977	      0.69749259	    -23.66714282	     14.23448830	     23.66714282	     -6.98119601	     97.90859780	     21.38763429	     -0.00000052	      0.00000000	     -0.00000071	      0.00000000
